# xmcd
#
# Track frame offsets:
# 150
# 25223
# 52357
# 92720
# 112682
# 130124
# 148377
# 167325
# 183169
# 205538
# 229301
# 243167
# 267667
# 298717
#
# Disc length: 4194 seconds
#
#
# Revision: 2
# Processed by: cddbd v1.5.1PL0 Copyright (c) Steve Scherf et al.
# Submitted via: FreeRIP 2.942 
#
DISCID=c810600e
DTITLE=Artisti Vari - Black Party Grooves cd1
DYEAR=2005
DGENRE=Soul
TTITLE0=Let's grooves - Earth, Wind and Fire
TTITLE1=Can you feel it - The Jackson
TTITLE2=It's a disco night ( rock don't stop) - the isley brothers
TTITLE3=Fresh - Kool and The Gang
TTITLE4=never too much - Luther Vandross
TTITLE5=Gangsters of the groove - Heatwave
TTITLE6=Give it up - K.C. and The sunshine band
TTITLE7=Relight my fire - Dan Hartman
TTITLE8=The Groove - Rodney Franklin
TTITLE9=Hot staff - Donna Summer
TTITLE10=Love really hurts without you - Billy Ocean
TTITLE11=It's raining men - The Weather girls
TTITLE12=I love music - The O'Jays
TTITLE13=I'm doing fine now
EXTD=
EXTT0=
EXTT1=
EXTT2=
EXTT3=
EXTT4=
EXTT5=
EXTT6=
EXTT7=
EXTT8=
EXTT9=
EXTT10=
EXTT11=
EXTT12=
EXTT13=
PLAYORDER=
